HIERARCHY
ROOT Hips
{
	OFFSET 0.00000 0.00000 0.00000
	CHANNELS 6 Xposition Yposition Zposition Zrotation Yrotation Xrotation 
	JOINT LHipJoint
	{
		OFFSET 0 0 0
		CHANNELS 3 Zrotation Yrotation Xrotation
		JOINT LeftHip
		{
			OFFSET 1.57338 -1.94743 0.52196
			CHANNELS 3 Zrotation Yrotation Xrotation
			JOINT LeftKnee
			{
				OFFSET 2.60333 -7.15259 0.00000
				CHANNELS 3 Zrotation Yrotation Xrotation
				JOINT LeftAnkle
				{
					OFFSET 2.77855 -7.63400 0.00000
					CHANNELS 3 Zrotation Yrotation Xrotation
					JOINT LeftToe
					{
						OFFSET 0.19847 -0.54529 2.28466
						CHANNELS 3 Zrotation Yrotation Xrotation
						End Site
						{
							OFFSET 0.00000 -0.00000 1.17993
						}
					}
				}
			}
		}
	}
	JOINT RHipJoint
	{
		OFFSET 0 0 0
		CHANNELS 3 Zrotation Yrotation Xrotation
		JOINT RightHip
		{
			OFFSET -1.61527 -1.94743 0.52196
			CHANNELS 3 Zrotation Yrotation Xrotation
			JOINT RightKnee
			{
				OFFSET -2.53829 -6.97390 0.00000
				CHANNELS 3 Zrotation Yrotation Xrotation
				JOINT RightAnkle
				{
					OFFSET -2.80762 -7.71387 0.00000
					CHANNELS 3 Zrotation Yrotation Xrotation
					JOINT RightToe
					{
						OFFSET -0.30536 -0.83898 2.28801
						CHANNELS 3 Zrotation Yrotation Xrotation
						End Site
						{
							OFFSET -0.00000 -0.00000 1.21323
						}
					}
				}
			}
		}
	}
	JOINT lowerback
	{
		OFFSET 0 0 0
		CHANNELS 3 Zrotation Yrotation Xrotation
		JOINT Chest
		{
			OFFSET -0.04381 1.99497 -0.19778
			CHANNELS 3 Zrotation Yrotation Xrotation
			JOINT Chest2
			{
				OFFSET -0.01959 2.01295 -0.04372
				CHANNELS 3 Zrotation Yrotation Xrotation
				JOINT lowerneck
				{
					OFFSET 0 0 0
					CHANNELS 3 Zrotation Yrotation Xrotation
					JOINT Neck
					{
						OFFSET -0.05459 1.76913 0.09708
						CHANNELS 3 Zrotation Yrotation Xrotation
						JOINT Head
						{
							OFFSET 0.09461 1.77368 -0.11172
							CHANNELS 3 Zrotation Yrotation Xrotation
							End Site
							{
								OFFSET 0.03812 1.78157 -0.04834
							}
						}
					}
				}
				JOINT LeftCollar
				{
					OFFSET 0 0 0
					CHANNELS 3 Zrotation Yrotation Xrotation
					JOINT LeftShoulder
					{
						OFFSET 3.50922 1.24034 -0.28866
CHANNELS 3 Zrotation Xrotation Yrotation
						JOINT LeftElbow
						{
OFFSET 0 -5.401880 0.000000
CHANNELS 3 Zrotation Xrotation Yrotation
							JOINT LeftWrist
							{
OFFSET 0 -3.685590 0.000000
CHANNELS 3 Zrotation Xrotation Yrotation
								JOINT lhand
								{
									OFFSET 0 0 0
CHANNELS 3 Zrotation Xrotation Yrotation
									JOINT LFingers
									{
OFFSET 0 -0.617530 0.000000
CHANNELS 3 Zrotation Xrotation Yrotation
										End Site
										{
OFFSET 0 -0.497870 0.000000
										}
									}
								}
								JOINT LThumb
								{
OFFSET 0 0.000000 0.000000
CHANNELS 3 Zrotation Xrotation Yrotation
									End Site
									{
OFFSET 0 -0.505470 0.505470
									}
								}
							}
						}
					}
				}
				JOINT RightCollar
				{
					OFFSET 0 0 0
					CHANNELS 3 Zrotation Yrotation Xrotation
					JOINT RightShoulder
					{
						OFFSET -2.95373 1.39649 -0.27346
CHANNELS 3 Zrotation Xrotation Yrotation
						JOINT RightElbow
						{
OFFSET 0 -6.106700 -0.000000
CHANNELS 3 Zrotation Xrotation Yrotation
							JOINT RightWrist
							{
OFFSET 0 -3.630520 0.000000
CHANNELS 3 Zrotation Xrotation Yrotation
								JOINT rhand
								{
									OFFSET 0 0 0
CHANNELS 3 Zrotation Xrotation Yrotation
									JOINT RFingers
									{
OFFSET 0 -0.583850 0.000000
CHANNELS 3 Zrotation Xrotation Yrotation
										End Site
										{
OFFSET 0 -0.470710 0.000000
										}
									}
								}
								JOINT RThumb
								{
OFFSET 0 0.000000 0.000000
CHANNELS 3 Zrotation Xrotation Yrotation
									End Site
									{
OFFSET 0 -0.477900 0.477900
									}
								}
							}
						}
					}
				}
			}
		}
	}
}
MOTION
Frames: 7
Frame Time: 0.008333333333333333
5.512384 18.655208 -1.593261 351.750786 74.585070 -11.721549 0.000000 0.000000 0.000000 -12.359375 -0.054671 1.530459 2.238207 9.345539 26.882288 0.682212 12.421827 -24.609731 0.524892 -4.642904 -12.892962 0.000000 0.000000 0.000000 18.075415 13.961510 4.502186 -1.801437 -8.439585 24.057264 -0.683373 -8.461105 -20.907502 -0.400901 4.064911 -11.259492 -0.342884 -0.137701 4.774439 0.300582 -0.193792 -0.852379 0.517130 -0.086033 -3.553591 -12.546542 -11.978333 -12.171351 17.136162 -16.305624 8.734252 5.693288 -7.177699 7.183793 0.000000 0.000000 0.000000 60.408416 -10.756220 24.296444 27.082753 -38.257992 9.550409 35.242168 18.401926 -22.609367 0.000000 0.000000 0.000000 -7.125000 0.000000 0.000000 7.029709 56.859113 -2.050038 0.000000 0.000000 0.000000 -78.167371 -26.351656 -61.108197 -12.541990 -20.612458 -2.289560 -40.810694 22.074907 14.289026 0.000000 0.000000 0.000000 7.125000 0.000000 0.000000 -13.035638 48.139270 1.026212
5.462914 18.643196 -1.450021 354.653280 73.564911 -8.492050 0.000000 0.000000 0.000000 -12.790182 -0.195016 1.842979 2.105963 9.083325 26.056309 0.605114 13.376419 -24.951784 0.477546 -4.431625 -12.294135 0.000000 0.000000 0.000000 17.370971 13.910750 3.350404 -1.873913 -8.598258 24.546451 -0.851691 -6.429231 -20.915171 -0.234793 3.118315 -8.608224 -1.092045 -0.293113 5.296460 -0.101864 -0.462453 -0.423355 0.545520 -0.210246 -3.398753 -12.302521 -13.882437 -9.457085 16.993986 -18.915165 6.475048 5.356081 -8.653154 6.359217 0.000000 0.000000 0.000000 53.764107 -3.209703 21.205163 30.530223 -41.342619 11.758607 35.045104 14.424164 -22.344109 0.000000 0.000000 0.000000 -7.125000 0.000000 0.000000 6.831313 56.508318 -1.933556 0.000000 0.000000 0.000000 -66.319708 -23.815452 -57.254367 -15.463314 -24.786575 -3.418461 -43.631369 18.180137 15.618367 0.000000 0.000000 0.000000 7.125000 0.000000 0.000000 -16.183371 50.388321 2.199097
5.393178 18.621579 -1.356576 359.888374 72.226873 -3.134111 0.000000 0.000000 0.000000 -14.245253 0.247046 2.358870 1.883453 8.619107 24.610861 0.403868 14.766001 -24.802988 0.602572 -4.968881 -13.819885 0.000000 0.000000 0.000000 17.064214 17.978171 4.028844 -1.998768 -8.863503 25.369296 -0.935400 -8.285919 -23.062791 -0.168777 2.646275 -7.295443 -2.698840 -0.689142 5.779540 -0.111376 -1.102331 -0.188566 1.494270 -0.500455 -3.387720 -12.875089 -14.636252 -7.819673 16.066238 -19.905365 6.213998 5.104631 -9.303086 6.091630 0.000000 0.000000 0.000000 44.540004 3.562631 16.177723 35.476245 -45.147662 15.150460 35.237724 12.224969 -21.634845 0.000000 0.000000 0.000000 -7.125000 0.000000 0.000000 7.128074 55.740902 -1.890912 0.000000 0.000000 0.000000 -54.028710 -21.056549 -41.217337 -20.055013 -30.706917 -5.560246 -45.833639 17.410994 14.865983 0.000000 0.000000 0.000000 7.125000 0.000000 0.000000 -18.414919 49.916206 2.300893
5.305395 18.595376 -1.277619 359.522624 71.250216 -2.957560 0.000000 0.000000 0.000000 -13.894237 0.183937 1.688145 1.920960 8.699451 24.859622 0.565931 14.684217 -26.045857 0.405031 -4.085680 -11.317779 0.000000 0.000000 0.000000 17.523359 19.171070 3.619250 -1.961528 -8.785543 25.126724 -0.979894 -8.436566 -23.559390 -0.120270 2.236161 -6.158756 -2.597509 -1.024430 5.999134 0.133789 -1.537575 -0.038476 1.729896 -0.718649 -3.331854 -13.351523 -14.984831 -7.293158 15.604048 -20.434132 6.964239 4.965141 -9.605138 6.306061 0.000000 0.000000 0.000000 34.962241 7.188435 9.336243 40.006373 -48.073039 18.444194 32.367742 8.401331 -19.436388 0.000000 0.000000 0.000000 -7.125000 0.000000 0.000000 4.225177 52.605797 -0.793036 0.000000 0.000000 0.000000 -43.316208 -16.284030 -20.066896 -24.938175 -36.138062 -8.254513 -45.285857 13.490436 10.371202 0.000000 0.000000 0.000000 7.125000 0.000000 0.000000 -16.824878 43.893887 -0.473288
5.209644 18.584881 -1.226101 361.428746 70.759721 -0.630774 0.000000 0.000000 0.000000 -14.189954 0.589753 0.716585 1.932865 8.724866 24.938374 0.556620 14.428812 -25.689890 0.384855 -3.983815 -11.031114 0.000000 0.000000 0.000000 16.837194 19.791385 2.852928 -1.946752 -8.754215 25.029468 -0.968856 -8.449970 -23.476312 -0.140351 2.413761 -6.650693 -3.123872 -1.297392 6.293621 -0.091423 -1.953668 0.007944 1.835509 -0.916563 -3.419716 -13.015893 -14.881791 -7.125039 15.412275 -20.372451 7.395500 4.876344 -9.575622 6.347049 0.000000 0.000000 0.000000 27.063199 8.406015 0.767407 41.296792 -48.819622 19.409718 27.172774 6.360086 -17.744601 0.000000 0.000000 0.000000 -7.125000 0.000000 0.000000 -0.827705 49.761520 0.096852 0.000000 0.000000 0.000000 -34.267126 -10.900495 2.140698 -29.396036 -40.368952 -11.016717 -42.717709 10.639229 6.228448 0.000000 0.000000 0.000000 7.125000 0.000000 0.000000 -13.706872 38.094498 -2.372237
5.116506 18.598658 -1.214834 360.410224 70.644720 -1.235877 0.000000 0.000000 0.000000 -13.401715 0.537285 -0.326613 2.034056 8.936583 25.597264 0.523199 13.694051 -24.605591 0.512501 -4.586769 -12.733994 0.000000 0.000000 0.000000 16.935862 19.463367 2.249466 -1.837602 -8.519135 24.302452 -0.898343 -8.220887 -22.689357 -0.130481 2.327685 -6.412203 -2.783647 -1.813749 6.401576 -0.077756 -2.612693 0.270431 1.714380 -1.255393 -3.187348 -12.464527 -14.710769 -7.130712 15.331698 -20.186931 7.456493 4.806867 -9.475814 6.275515 0.000000 0.000000 0.000000 20.286311 7.408658 -6.641425 39.420106 -47.722392 18.009013 26.702331 11.099871 -16.192450 0.000000 0.000000 0.000000 -7.125000 0.000000 0.000000 -1.020244 47.984185 0.073903 0.000000 0.000000 0.000000 -27.697784 -7.237249 24.342688 -31.520679 -42.161602 -12.417904 -35.757005 10.024891 -1.397847 0.000000 0.000000 0.000000 7.125000 0.000000 0.000000 -7.106241 28.236457 -2.908651
5.010844 18.611736 -1.233107 359.558536 70.399508 -1.647886 0.000000 0.000000 0.000000 -12.899263 0.504020 -1.407722 2.116953 9.105575 26.126181 0.512160 13.379997 -24.166471 0.545321 -4.731122 -13.143220 0.000000 0.000000 0.000000 17.045694 19.870978 1.705376 -1.769653 -8.368745 23.839854 -0.837609 -8.246457 -22.169233 -0.116332 2.199174 -6.056398 -2.768926 -1.967995 6.738615 -0.098342 -2.821665 0.481357 1.711437 -1.361027 -3.149346 -12.282923 -15.139532 -7.446145 15.483796 -20.878813 8.103794 4.682762 -9.755861 6.627808 0.000000 0.000000 0.000000 15.346833 5.698852 -13.229030 38.077738 -46.888890 17.022291 27.199345 15.644130 -14.665894 0.000000 0.000000 0.000000 -7.125000 0.000000 0.000000 -0.317767 46.375796 0.010844 0.000000 0.000000 0.000000 -23.302256 -5.180088 43.080832 -31.500680 -42.145444 -12.404465 -31.578139 14.819353 -6.925154 0.000000 0.000000 0.000000 7.125000 0.000000 0.000000 -3.500222 21.876136 -1.938326
